<svg width="110" height="19" viewBox="0 0 110 19" fill="none" xmlns="http://www.w3.org/2000/svg">
<path d="M8.04894 3.09356C8.3483 2.17225 9.6517 2.17224 9.95106 3.09356L10.7961 5.69437C10.93 6.10639 11.3139 6.38535 11.7472 6.38535H14.4818C15.4505 6.38535 15.8533 7.62497 15.0696 8.19437L12.8572 9.80176C12.5067 10.0564 12.3601 10.5078 12.494 10.9198L13.339 13.5206C13.6384 14.4419 12.5839 15.208 11.8002 14.6386L9.58779 13.0312C9.2373 12.7766 8.7627 12.7766 8.41222 13.0312L6.19983 14.6386C5.41612 15.208 4.36164 14.4419 4.66099 13.5206L5.50604 10.9198C5.63992 10.5078 5.49326 10.0564 5.14277 9.80176L2.93039 8.19437C2.14668 7.62497 2.54945 6.38535 3.51818 6.38535H6.25283C6.68606 6.38535 7.07001 6.10639 7.20389 5.69437L8.04894 3.09356Z" fill="#FDA043"/>
<path d="M31.0489 3.09356C31.3483 2.17225 32.6517 2.17224 32.9511 3.09356L33.7961 5.69437C33.93 6.10639 34.3139 6.38535 34.7472 6.38535H37.4818C38.4505 6.38535 38.8533 7.62497 38.0696 8.19437L35.8572 9.80176C35.5067 10.0564 35.3601 10.5078 35.494 10.9198L36.339 13.5206C36.6384 14.4419 35.5839 15.208 34.8002 14.6386L32.5878 13.0312C32.2373 12.7766 31.7627 12.7766 31.4122 13.0312L29.1998 14.6386C28.4161 15.208 27.3616 14.4419 27.661 13.5206L28.506 10.9198C28.6399 10.5078 28.4933 10.0564 28.1428 9.80176L25.9304 8.19437C25.1467 7.62497 25.5495 6.38535 26.5182 6.38535H29.2528C29.6861 6.38535 30.07 6.10639 30.2039 5.69437L31.0489 3.09356Z" fill="#FDA043"/>
<path d="M54.0489 3.09356C54.3483 2.17225 55.6517 2.17224 55.9511 3.09356L56.7961 5.69437C56.93 6.10639 57.3139 6.38535 57.7472 6.38535H60.4818C61.4505 6.38535 61.8533 7.62497 61.0696 8.19437L58.8572 9.80176C58.5067 10.0564 58.3601 10.5078 58.494 10.9198L59.339 13.5206C59.6384 14.4419 58.5839 15.208 57.8002 14.6386L55.5878 13.0312C55.2373 12.7766 54.7627 12.7766 54.4122 13.0312L52.1998 14.6386C51.4161 15.208 50.3616 14.4419 50.661 13.5206L51.506 10.9198C51.6399 10.5078 51.4933 10.0564 51.1428 9.80176L48.9304 8.19437C48.1467 7.62497 48.5495 6.38535 49.5182 6.38535H52.2528C52.6861 6.38535 53.07 6.10639 53.2039 5.69437L54.0489 3.09356Z" fill="#FDA043"/>
<path d="M77.0489 3.09356C77.3483 2.17225 78.6517 2.17224 78.9511 3.09356L79.7961 5.69437C79.93 6.10639 80.3139 6.38535 80.7472 6.38535H83.4818C84.4505 6.38535 84.8533 7.62497 84.0696 8.19437L81.8572 9.80176C81.5067 10.0564 81.3601 10.5078 81.494 10.9198L82.339 13.5206C82.6384 14.4419 81.5839 15.208 80.8002 14.6386L78.5878 13.0312C78.2373 12.7766 77.7627 12.7766 77.4122 13.0312L75.1998 14.6386C74.4161 15.208 73.3616 14.4419 73.661 13.5206L74.506 10.9198C74.6399 10.5078 74.4933 10.0564 74.1428 9.80176L71.9304 8.19437C71.1467 7.62497 71.5495 6.38535 72.5182 6.38535H75.2528C75.6861 6.38535 76.07 6.10639 76.2039 5.69437L77.0489 3.09356Z" fill="#FDA043"/>
<path d="M100.049 3.09356C100.348 2.17225 101.652 2.17224 101.951 3.09356L102.796 5.69437C102.93 6.10639 103.314 6.38535 103.747 6.38535H106.482C107.451 6.38535 107.853 7.62497 107.07 8.19437L104.857 9.80176C104.507 10.0564 104.36 10.5078 104.494 10.9198L105.339 13.5206C105.638 14.4419 104.584 15.208 103.8 14.6386L101.588 13.0312C101.237 12.7766 100.763 12.7766 100.412 13.0312L98.1998 14.6386C97.4161 15.208 96.3616 14.4419 96.661 13.5206L97.506 10.9198C97.6399 10.5078 97.4933 10.0564 97.1428 9.80176L94.9304 8.19437C94.1467 7.62497 94.5495 6.38535 95.5182 6.38535H98.2528C98.6861 6.38535 99.07 6.10639 99.2039 5.69437L100.049 3.09356Z" fill="#FDA043"/>
</svg>
